<svg width="10" height="11" viewBox="0 0 10 11" fill="none" xmlns="http://www.w3.org/2000/svg">
<path d="M3.58075 1.01836C4.17979 0.54264 5.01926 0.523962 5.63649 0.96222L5.7124 1.01883L8.58349 3.31665C8.89942 3.56149 9.09317 3.92514 9.12609 4.32082L9.13078 4.41561L9.12994 8.23986C9.12972 9.22551 8.35092 10.0271 7.37516 10.0787L6.43666 10.0785C5.98817 10.0695 5.62558 9.72039 5.59267 9.28179L5.58797 9.21529L5.58827 7.86697C5.5883 7.72031 5.47939 7.59814 5.33367 7.57405L5.29122 7.56933L4.03157 7.56905C3.88112 7.57373 3.75848 7.68217 3.73959 7.82365L3.73486 7.86656L3.73456 9.21064C3.73456 9.23846 3.72936 9.27147 3.72511 9.29505L3.72039 9.30496L3.7152 9.33749C3.65899 9.73882 3.3288 10.0448 2.91849 10.0735L2.85719 10.0777L2.01301 10.0775C1.02736 10.0773 0.221087 9.30418 0.169426 8.33219L0.170295 4.41363C0.174629 4.01229 0.349677 3.63976 0.642129 3.38044L3.58075 1.01836ZM5.30199 1.53279C4.94364 1.24503 4.43431 1.23124 4.05697 1.48063L3.98575 1.5325L1.11788 3.84319C0.953258 3.9653 0.854181 4.14921 0.830558 4.34256L0.825353 4.41802L0.824506 8.23801C0.824366 8.86525 1.31472 9.37941 1.9377 9.41727L2.85733 9.41748C2.96108 9.4175 3.05071 9.34725 3.0644 9.24822L3.07433 9.16333L3.07905 9.13928L3.07933 7.86642C3.07944 7.3618 3.46625 6.95159 3.96144 6.9135L5.29137 6.91379C5.79551 6.91391 6.20572 7.30119 6.24381 7.79638L6.2435 9.21544C6.24348 9.31447 6.3142 9.39985 6.40852 9.41826L7.28523 9.41846C7.91718 9.4186 8.43134 8.93343 8.4692 8.31517L8.4744 8.23971L8.47525 4.41971C8.47011 4.21739 8.38573 4.02826 8.23957 3.88722L8.17827 3.83486L5.30199 1.53279Z" fill="white"/>
</svg>
