<svg width="11" height="11" viewBox="0 0 11 11" fill="none" xmlns="http://www.w3.org/2000/svg">
<path d="M6.56067 1.08863L6.64664 1.16882L6.98552 1.50786C7.10193 1.62377 7.25464 1.69525 7.41709 1.71134L7.48723 1.71481L7.97204 1.71492C8.72841 1.71509 9.34676 2.30669 9.38981 3.05226L9.3922 3.13571L9.39209 3.62005C9.39205 3.78501 9.4489 3.94361 9.55149 4.06974L9.59823 4.12172L9.93714 4.46079C10.4707 4.99212 10.4943 5.84163 10.0053 6.40135L9.94151 6.46976L9.59793 6.81319C9.48237 6.92897 9.41085 7.08179 9.39475 7.24407L9.39127 7.31412L9.39116 7.79941C9.391 8.55573 8.79943 9.17368 8.05383 9.2167L7.97038 9.21909L7.48557 9.21898C7.32119 9.21895 7.16238 9.27604 7.03619 9.37891L6.98419 9.42577L6.64558 9.76375C6.11481 10.2979 5.2647 10.3214 4.70476 9.83222L4.63208 9.76415L4.29396 9.42588C4.17684 9.30954 4.02385 9.2378 3.86186 9.22165L3.79196 9.21817L3.30668 9.21806C2.55063 9.21789 1.93242 8.62659 1.88938 7.88118L1.88699 7.79774L1.8871 7.31246C1.88713 7.14835 1.82996 6.98939 1.72714 6.86343L1.68032 6.81155L1.34219 6.4728C0.808181 5.94157 0.784677 5.09143 1.27386 4.53205L1.33768 4.46369L1.6802 4.12086C1.79669 4.00359 1.86832 3.85089 1.88444 3.6885L1.88792 3.61838L1.88802 3.13404L1.89045 3.0506C1.93222 2.33275 2.50731 1.75774 3.22493 1.71628L3.30834 1.71388L3.79362 1.71399C3.95797 1.71403 4.1168 1.65705 4.24276 1.55466L4.29465 1.50803L4.63342 1.16894C5.16474 0.635451 6.01478 0.612147 6.56067 1.08863ZM5.18838 1.61941L5.13426 1.66853L4.79404 2.00907C4.55005 2.25122 4.22738 2.39597 3.88676 2.41835L3.79347 2.4214L3.30818 2.42129C2.93677 2.42121 2.63124 2.70606 2.59836 3.06932L2.59543 3.1342L2.59532 3.61854C2.59525 3.96242 2.47038 4.29305 2.24523 4.55147L2.18136 4.62012L1.83835 4.96345C1.57805 5.22481 1.56281 5.63777 1.79273 5.91798L1.84198 5.97217L2.18111 6.31192C2.42365 6.55515 2.56897 6.87838 2.59144 7.21926L2.5945 7.31262L2.5944 7.7979C2.59431 8.16954 2.87896 8.47487 3.242 8.50772L3.30683 8.51065L3.79211 8.51076C4.13534 8.51084 4.46627 8.63584 4.72474 8.86102L4.7934 8.92489L5.13444 9.26609C5.39764 9.52793 5.81072 9.54327 6.09067 9.31336L6.1448 9.2641L6.48485 8.92468C6.72859 8.6822 7.0514 8.53708 7.39234 8.51464L7.48572 8.51158L7.97053 8.51169C8.34248 8.51177 8.64796 8.22726 8.68083 7.86411L8.68376 7.79925L8.68386 7.31397C8.68394 6.97024 8.80889 6.63873 9.03375 6.38144L9.09753 6.31316L9.4407 5.97014C9.701 5.70848 9.71615 5.29572 9.48656 5.01562L9.43738 4.96145L9.09702 4.62093C8.85471 4.37679 8.71009 4.05445 8.68773 3.71334L8.68468 3.61989L8.68479 3.13555C8.68487 2.76373 8.40007 2.45814 8.03677 2.42526L7.97188 2.42233L7.48707 2.42222C7.14319 2.42214 6.81213 2.29738 6.55426 2.07238L6.48579 2.00855L6.16143 1.68318L6.14264 1.66572C5.8813 1.40544 5.46824 1.39012 5.18838 1.61941ZM7.09966 6.43011C7.13266 6.46313 7.16095 6.50087 7.1798 6.54332C7.19394 6.58576 7.20337 6.63293 7.20335 6.68009C7.20334 6.72772 7.1939 6.76969 7.17975 6.81213C7.16087 6.85457 7.13257 6.89701 7.09955 6.93001C7.03351 6.99602 6.94389 7.03373 6.84957 7.03371C6.75525 7.03369 6.66566 6.99594 6.59965 6.9299C6.56664 6.89688 6.54307 6.85443 6.52421 6.81198C6.50536 6.76954 6.49594 6.72756 6.49595 6.67993C6.49596 6.63277 6.5054 6.58561 6.52427 6.54317C6.54315 6.50073 6.56674 6.46301 6.59976 6.43C6.73184 6.29798 6.96764 6.29803 7.09966 6.43011ZM7.10191 4.00454C7.22745 4.13014 7.23882 4.32664 7.13605 4.46509L7.1018 4.50475L4.67721 6.92826C4.53905 7.06636 4.3151 7.06631 4.177 6.92815C4.05145 6.80255 4.04008 6.60605 4.14285 6.4676L4.17711 6.42794L6.6017 4.00443C6.73986 3.86633 6.96381 3.86638 7.10191 4.00454ZM4.6761 4.00572C4.74211 4.07128 4.77982 4.16137 4.7798 4.25569C4.77979 4.30285 4.77506 4.34482 4.75619 4.38773C4.73731 4.43017 4.70901 4.46789 4.67599 4.50562C4.64297 4.53862 4.60524 4.56172 4.56279 4.58058C4.52034 4.59943 4.47318 4.60932 4.42602 4.60931C4.37886 4.6093 4.33641 4.59939 4.29397 4.58052C4.25153 4.56164 4.20909 4.53852 4.17609 4.50551C4.14308 4.46777 4.11951 4.43004 4.10066 4.38759C4.0818 4.34467 4.07238 4.30269 4.07239 4.25553C4.0724 4.2079 4.08184 4.16121 4.10072 4.11877C4.11959 4.07633 4.14318 4.03389 4.1762 4.0056C4.31299 3.87311 4.54408 3.87316 4.6761 4.00572Z" fill="white"/>
</svg>
